<svg version="1.2" xmlns="http://www.w3.org/2000/svg" viewBox="0 0 579 150" width="579" height="150"><style>.a{fill:#1c7c54}.b{fill:#c4a77d}</style><path class="a" d="m42.2 116q-1.8 0-3.1-1.2-1.2-1.3-1.2-3.1v-74.8q0-1.8 1.2-3 1.3-1.3 3.1-1.3h39.5q0.7 0 1.2 0.5 0.5 0.5 0.5 1.2v5.9q0 0.7-0.5 1.2-0.5 0.4-1.2 0.4h-34v25.7h25.9q0.8 0 1.2 0.5 0.5 0.5 0.5 1.2v5.6q0 0.8-0.5 1.2-0.4 0.5-1.2 0.5h-25.9v30.3h34q0.7 0 1.2 0.4 0.5 0.5 0.5 1.2v5.9q0 0.7-0.5 1.2-0.5 0.5-1.2 0.5zm-3.2 0q-1.8 0-3.1-1.2-1.2-1.3-1.2-3.1v-74.8q0-1.8 1.2-3 1.3-1.3 3.1-1.3h39.5q0.7 0 1.2 0.5 0.5 0.5 0.5 1.2v5.9q0 0.7-0.5 1.2-0.5 0.4-1.2 0.4h-34v25.7h25.9q0.8 0 1.2 0.5 0.5 0.5 0.5 1.2v5.6q0 0.8-0.5 1.2-0.4 0.5-1.2 0.5h-25.9v30.3h34q0.7 0 1.2 0.4 0.5 0.5 0.5 1.2v5.9q0 0.7-0.5 1.2-0.5 0.5-1.2 0.5zm45.2 0q-1 0-1.6-0.6-0.6-0.6-0.6-1.4 0-0.6 0.4-1.4l24.2-38.4-24.1-38.2q-0.4-0.8-0.4-1.4 0-0.8 0.6-1.4 0.6-0.6 1.6-0.6h6.5q1.2 0 1.8 1l19.9 31.4 19.8-31.4q0.6-1 1.8-1h6.5q0.9 0 1.5 0.6 0.6 0.6 0.6 1.4 0 0.6-0.3 1.4l-24.2 38.2 24.3 38.4q0.3 0.8 0.3 1.4 0 0.8-0.6 1.4-0.6 0.6-1.5 0.6h-6.6q-1.2 0-1.8-1l-19.8-31.5-19.9 31.5q-0.6 1-1.8 1zm-3.2 0q-1 0-1.6-0.6-0.6-0.6-0.6-1.4 0-0.6 0.4-1.4l24.2-38.4-24.1-38.2q-0.4-0.8-0.4-1.4 0-0.8 0.6-1.4 0.6-0.6 1.6-0.6h6.5q1.2 0 1.8 1l19.9 31.4 19.8-31.4q0.6-1 1.8-1h6.5q0.9 0 1.5 0.6 0.6 0.6 0.6 1.4 0 0.6-0.3 1.4l-24.1 38.2 24.2 38.4q0.4 0.8 0.4 1.4 0 0.8-0.6 1.4-0.6 0.6-1.6 0.6h-6.6q-1.2 0-1.8-1l-19.8-31.5-19.9 31.5q-0.6 1-1.8 1z"/><path class="b" d="m153.2 116q-0.8 0-1.2-0.5-0.5-0.5-0.5-1.2v-77.4q0-1.8 1.2-3 1.3-1.3 3.1-1.3h20.2q7.2 0 13.2 3.5 6 3.5 9.4 9.3 3.5 5.9 3.5 13 0 7.1-3.5 13-3.4 5.8-9.4 9.3-6 3.5-13.2 3.5h-14.7v30.1q0 0.7-0.5 1.2-0.4 0.5-1.2 0.5zm8.2-41h14q4.6 0 8.4-2.2 3.9-2.3 6-6.1 2.3-3.9 2.3-8.3 0-4.4-2.3-8.3-2.1-3.8-6-6-3.8-2.3-8.4-2.3h-14zm51.5 41.1q-1.8 0-3.1-1.2-1.2-1.3-1.2-3.1v-74.8q0-1.8 1.2-3 1.3-1.3 3.1-1.3h39.5q0.7 0 1.2 0.5 0.4 0.4 0.4 1.2v5.8q0 0.8-0.4 1.2-0.5 0.5-1.2 0.5h-34v25.7h25.9q0.7 0 1.2 0.5 0.5 0.5 0.5 1.2v5.6q0 0.7-0.5 1.2-0.5 0.5-1.2 0.5h-25.9v30.2h34q0.7 0 1.2 0.5 0.4 0.5 0.4 1.2v5.9q0 0.7-0.4 1.2-0.5 0.5-1.2 0.5zm50.4 0q-0.8 0-1.2-0.5-0.5-0.5-0.5-1.2v-79.2q0-1.1 0.7-1.8 0.7-0.7 1.8-0.7h7.1q0.9 0 1.8 0.5 0.8 0.3 1.3 1.2l37.9 66.2v-66.2q0-0.8 0.5-1.2 0.5-0.5 1.2-0.5h6q0.7 0 1.2 0.5 0.5 0.4 0.5 1.2v79.2q0 1-0.7 1.8-0.8 0.7-1.8 0.7h-7.2q-1 0-1.8-0.4-0.9-0.5-1.4-1.3l-37.8-66.1v66.1q0 0.7-0.4 1.2-0.5 0.5-1.2 0.5zm88.8 1.5q-6 0-12-1.6-5.9-1.7-10.2-4.7-0.5-0.3-0.8-0.9-0.1-0.6 0.2-1.2l2.7-5.4q0.6-1 1.7-1 0.6 0 1 0.2 9.2 5.5 17.5 5.5 7.7 0 12.6-3.8 4.9-4 4.9-10.6 0-4.3-2.2-7.1-2.1-2.7-5.4-4.4-3.2-1.7-9-4-7.5-2.8-12.1-5.2-4.5-2.6-7.9-7.2-3.4-4.7-3.4-12.2 0-7.4 3.5-12.6 3.6-5.2 9.5-7.8 5.9-2.5 13-2.5 5.7 0 11.1 1.7 5.5 1.6 9.7 4.3 0.5 0.3 0.6 1 0.3 0.6-0.1 1.2l-2.6 4.9q-0.4 0.7-1.1 1-0.7 0.2-1.4-0.3-8.1-4.8-16.1-4.8-7.3 0-11.8 3.6-4.3 3.6-4.3 9.9 0 4.3 2.2 7.2 2.1 2.7 5.2 4.4 3.3 1.7 9.2 4 1 0.4 8 3.1 7.1 2.6 11.2 8 4.2 5.4 4.2 13 0 7.4-3.6 12.9-3.5 5.6-9.8 8.6-6.2 2.8-14.2 2.8zm33.8-1.5q-0.7 0-1.2-0.5-0.5-0.5-0.5-1.2v-5.6q0-0.8 0.5-1.2 0.5-0.5 1.2-0.5h12.1v-65.4h-12.1q-0.7 0-1.2-0.5-0.5-0.5-0.5-1.2v-5.6q0-0.8 0.5-1.2 0.5-0.5 1.2-0.5h34.1q0.7 0 1.2 0.5 0.5 0.4 0.5 1.2v5.6q0 0.7-0.5 1.2-0.5 0.5-1.2 0.5h-12.1v65.4h12.1q0.7 0 1.2 0.5 0.5 0.4 0.5 1.2v5.6q0 0.7-0.5 1.2-0.5 0.5-1.2 0.5zm67.1 0q-0.8 0-1.5-0.4-0.6-0.5-0.8-1.2l-24.7-79.2q-0.2-0.2-0.2-0.8 0-0.7 0.5-1.2 0.6-0.6 1.5-0.6h5.8q0.8 0 1.5 0.5 0.7 0.3 0.8 1l21 69.4 21-69.4q0.3-0.7 0.9-1 0.7-0.5 1.4-0.5h5.9q1.1 0 1.5 0.8 0.6 0.7 0.3 1.8l-24.7 79.2q-0.2 0.7-0.9 1.2-0.7 0.4-1.4 0.4zm27.2 0q-1.1 0-1.7-0.7-0.4-0.9-0.1-2l26.1-79.2q0.2-0.7 0.8-1 0.7-0.5 1.4-0.5h8q0.7 0 1.3 0.5 0.7 0.3 0.9 1l26.1 79.2q0.1 0.3 0.1 0.9 0 0.7-0.6 1.3-0.5 0.5-1.3 0.5h-5.9q-0.7 0-1.4-0.4-0.6-0.5-0.9-1.2l-6.7-20.9h-31.2l-6.7 20.9q-0.1 0.7-0.9 1.2-0.7 0.4-1.4 0.4zm17.6-31.2h25.7l-12.8-39.7z"/></svg>